<svg width="114" height="50" viewBox="0 0 114 50" fill="none" xmlns="http://www.w3.org/2000/svg">
<g clip-path="url(#clip0_1148_2824)">
<path d="M93.96 11.6041H29.6867V12.3964H93.96V11.6041Z" fill="#706CFF"/>
<path d="M85.4633 12.3964V14.6369C85.4633 20.0441 83.6612 23.5376 80.8725 23.5376C80.6543 23.5381 80.4366 23.5155 80.2232 23.4702C82.1992 22.263 83.3983 19.0575 83.3983 14.6369V12.3964H82.9335V14.6369C82.9335 19.1751 81.664 22.3647 79.6083 23.2734C79.2619 23.1183 78.9433 22.9077 78.6655 22.65C80.0572 21.0955 80.8699 18.2782 80.8699 14.6369V12.3964H80.4051V14.6369C80.4051 18.1528 79.6428 20.859 78.3441 22.3225C77.9219 21.8334 77.5791 21.2817 77.3282 20.6873C77.9802 19.1235 78.3414 17.0631 78.3414 14.6369V12.3964H77.8767V14.6369C77.8767 16.7778 77.5938 18.619 77.0799 20.0626C76.5646 18.619 76.2818 16.7778 76.2818 14.6369V12.3964H75.817V14.6369C75.817 17.0631 76.1782 19.1235 76.8302 20.6873C76.5788 21.2819 76.2361 21.8339 75.8143 22.3238C74.5143 20.8604 73.752 18.1541 73.752 14.6369V12.3964H73.2872V14.6369C73.2872 18.2782 74.1013 21.0955 75.493 22.65C75.2151 22.9077 74.8966 23.1183 74.5501 23.2734C72.4931 22.3661 71.2236 19.1751 71.2236 14.6369V12.3964H70.7588V14.6369C70.7588 19.0575 71.9579 22.263 73.9339 23.4715C73.7208 23.5157 73.5036 23.5379 73.2859 23.5376C70.4972 23.5376 68.6951 20.0441 68.6951 14.6369V12.3964H68.2303V14.6369C68.2303 20.3241 70.2143 23.9999 73.2859 23.9999C73.7177 24.0012 74.1461 23.9242 74.5501 23.7727C75.3659 24.0756 76.2641 24.0756 77.0799 23.7727C77.4832 23.925 77.9113 24.002 78.3428 23.9999C78.775 24.0013 79.2039 23.9243 79.6083 23.7727C80.0123 23.9242 80.4407 24.0012 80.8725 23.9999C83.9428 23.9999 85.9281 20.3241 85.9281 14.6369V12.3964H85.4633ZM75.8143 23.5376C75.5962 23.5379 75.3786 23.5157 75.165 23.4715C75.397 23.3287 75.6145 23.1637 75.8143 22.9789C76.0142 23.1637 76.2317 23.3287 76.4637 23.4715C76.2501 23.5157 76.0324 23.5379 75.8142 23.5376H75.8143ZM77.0785 23.2734C76.7321 23.1183 76.4136 22.9077 76.1357 22.65C76.512 22.2207 76.8295 21.7437 77.0799 21.2315C77.3289 21.7439 77.6456 22.2209 78.0214 22.65C77.7435 22.9077 77.425 23.1183 77.0785 23.2734ZM78.3428 23.5376C78.125 23.5379 77.9079 23.5157 77.6947 23.4715C77.9271 23.3286 78.1446 23.1632 78.3441 22.9776C78.5428 23.1631 78.7599 23.3282 78.9921 23.4702C78.7787 23.5155 78.561 23.5381 78.3428 23.5376Z" fill="#00391F"/>
<path d="M67.4322 3.93867C67.9462 5.38228 68.229 7.22345 68.229 9.36443V11.6041H68.6938V9.36443C68.6938 6.93684 68.3326 4.87642 67.6806 3.31262C67.9315 2.71866 68.2742 2.1674 68.6964 1.67882C69.9965 3.14224 70.7574 5.84984 70.7574 9.36443V11.6041H71.2222V9.36443C71.2222 5.72304 70.4095 2.90714 69.0178 1.35126C69.2957 1.09319 69.6142 0.882144 69.9607 0.726533C72.0177 1.63391 73.2872 4.82623 73.2872 9.36443V11.6041H73.752V9.36429C73.752 4.94233 72.5529 1.7368 70.5755 0.528288C70.7891 0.48409 71.0067 0.461959 71.2249 0.462249C74.0136 0.462249 75.8156 3.95703 75.8156 9.36429V11.6039H76.2804V9.36429C76.2804 3.6757 74.2965 -2.36422e-05 71.2249 -2.36422e-05C70.793 -0.00200793 70.3645 0.0749971 69.9607 0.22715C69.1449 -0.075733 68.2467 -0.075733 67.4309 0.22715C66.6156 -0.0757368 65.7178 -0.0757368 64.9025 0.22715C64.4984 0.0756252 64.07 -0.00135862 63.6382 -2.36422e-05C60.5667 -2.36422e-05 58.5827 3.6757 58.5827 9.36429L58.596 14.6368C58.596 16.7778 58.3131 18.619 57.7992 20.0626C57.284 18.619 57.0011 16.7778 57.0011 14.6368V12.3964H56.5363V14.6368C56.5363 17.0631 56.8975 19.1235 57.5495 20.6873C57.2986 21.2814 56.9563 21.833 56.535 22.3225C55.2349 20.859 54.4727 18.1528 54.4727 14.6368V12.3964H54.0079V14.6368C54.0079 18.2782 54.8206 21.0954 56.2123 22.65C55.9344 22.9077 55.6159 23.1183 55.2694 23.2734C53.2124 22.366 51.9429 19.175 51.9429 14.6368V12.3964H51.4781V14.6368C51.4781 19.0575 52.6773 22.263 54.6546 23.4715C54.441 23.5157 54.2234 23.5378 54.0052 23.5376C51.2165 23.5376 49.4145 20.0441 49.4145 14.6368V12.3964H48.9497V14.6368C48.9497 20.3241 50.9337 23.9998 54.0052 23.9998C54.437 24.0012 54.8654 23.9242 55.2694 23.7727C56.0847 24.0756 56.9826 24.0756 57.7979 23.7727C58.6136 24.0756 59.5119 24.0756 60.3276 23.7727C60.7317 23.9242 61.1601 24.0012 61.5919 23.9998C64.6634 23.9998 66.6474 20.3241 66.6474 14.6355L66.6341 9.36429C66.6341 7.22331 66.917 5.38215 67.4322 3.93867ZM68.6964 0.462378C68.9142 0.462086 69.1313 0.484217 69.3445 0.528417C69.1126 0.67134 68.8955 0.836811 68.6964 1.02239C68.4969 0.837193 68.2794 0.672164 68.0471 0.529739C68.2605 0.484407 68.4782 0.461913 68.6964 0.462378ZM67.4322 0.726533C67.7779 0.882979 68.0958 1.09394 68.3738 1.35126C67.9975 1.77956 67.6808 2.25623 67.4322 2.76846C67.1827 2.25644 66.8657 1.77984 66.4894 1.35126C66.7672 1.09314 67.0857 0.882184 67.4322 0.726533ZM66.1667 0.462378C66.3849 0.461864 66.6026 0.484445 66.8161 0.529739C66.5839 0.671758 66.3667 0.83682 66.168 1.02239C65.968 0.836768 65.7501 0.671301 65.5173 0.528417C65.7309 0.484215 65.9485 0.462085 66.1667 0.462378ZM59.0608 14.6357L59.0475 9.36443C59.0475 3.95716 60.8495 0.462378 63.6382 0.462378C63.8564 0.46209 64.074 0.484221 64.2876 0.528417C62.3103 1.73693 61.1111 4.94246 61.1111 9.36443L61.1244 14.637C61.1244 18.1529 60.3622 20.8592 59.0634 22.3226C58.6412 21.8335 58.2984 21.2818 58.0475 20.6875C58.6996 19.1222 59.0608 17.0618 59.0608 14.6355V14.6357ZM56.5337 23.5377C56.3155 23.538 56.0979 23.5158 55.8843 23.4717C56.1171 23.3288 56.335 23.1633 56.535 22.9777C56.7337 23.1633 56.9508 23.3283 57.183 23.4703C56.9696 23.5156 56.7519 23.5381 56.5337 23.5376V23.5377ZM56.8564 22.6501C57.2322 22.2208 57.5492 21.7438 57.7992 21.2316C58.0487 21.7437 58.3653 22.2207 58.7407 22.6501C58.4627 22.9071 58.1448 23.1176 57.7992 23.2735C57.4528 23.1184 57.1342 22.9077 56.8564 22.65V22.6501ZM59.0634 23.5377C58.8452 23.5382 58.6275 23.5156 58.4141 23.4703C58.6464 23.3279 58.8639 23.1629 59.0634 22.9777C59.2629 23.1633 59.4805 23.3288 59.7128 23.4717C59.4992 23.5158 59.2816 23.538 59.0634 23.5377ZM59.3848 22.6501C60.7765 21.0956 61.5892 18.2784 61.5892 14.6357L61.5759 9.36443C61.5759 4.82623 62.8455 1.63391 64.9025 0.726533C65.249 0.882144 65.5675 1.09319 65.8453 1.35126C64.4536 2.90714 63.6409 5.72304 63.6409 9.36443L63.6542 14.637C63.6542 19.1752 62.3847 22.3662 60.3276 23.2735C59.9812 23.1184 59.6627 22.9077 59.3848 22.65V22.6501ZM61.5919 23.5377C61.3737 23.538 61.1561 23.5158 60.9425 23.4717C62.9198 22.2632 64.119 19.0576 64.119 14.6357L64.1057 9.36443C64.1057 5.84984 64.8666 3.14224 66.168 1.67882C66.5893 2.16779 66.9316 2.71898 67.1826 3.31262C66.5305 4.87642 66.1693 6.93684 66.1693 9.36443L66.1826 14.637C66.1826 20.0442 64.3806 23.5376 61.5919 23.5376V23.5377Z" fill="#00391F"/>
<path d="M29.6873 11.6043H30.1521V9.36462C30.1521 6.93703 29.7909 4.87661 29.1389 3.31281C29.3898 2.71885 29.7326 2.16758 30.1548 1.679C31.4549 3.14243 32.2158 5.85002 32.2158 9.36462V11.6043H32.6806V9.36462C32.6806 5.72323 31.8678 2.90733 30.4761 1.35145C30.754 1.09337 31.0725 0.88233 31.419 0.72672C33.476 1.63409 34.7455 4.82642 34.7455 9.36462V11.6043H35.2103V9.36462C35.2103 4.94265 34.0112 1.73712 32.0338 0.528603C32.2474 0.484405 32.465 0.462275 32.6832 0.462564C35.4719 0.462564 37.274 3.95735 37.274 9.36462V11.6043H37.7388V9.36462C37.7388 3.67602 35.7548 0.000291727 32.6832 0.000291727C32.2514 -0.00104325 31.823 0.0759406 31.419 0.227466C30.6037 -0.0754095 29.7059 -0.0754095 28.8906 0.227466C28.0748 -0.0754177 27.1766 -0.0754177 26.3608 0.227466C25.9568 0.0759435 25.5284 -0.00104029 25.0966 0.000291727C22.0263 0.000291727 20.041 3.67602 20.041 9.36462V11.9776H20.5058V9.36514C20.5058 3.95788 22.3079 0.463096 25.0966 0.463096C25.3148 0.462588 25.5325 0.485166 25.7459 0.530453C23.7699 1.73765 22.5708 4.94318 22.5708 9.36514V12.0093H23.0356V9.36514C23.0356 4.82695 24.3051 1.63463 26.3621 0.727252C26.7077 0.883695 27.0257 1.09465 27.3036 1.35198C25.9119 2.90786 25.0992 5.72376 25.0992 9.36514V12.0093H25.564V9.36514C25.564 5.85055 26.3249 3.14296 27.6263 1.67953C28.0477 2.16851 28.39 2.7197 28.6409 3.31334C27.9889 4.87714 27.6277 6.93755 27.6277 9.36514V12.0093H28.0925V9.36514C28.0925 7.22416 28.3753 5.38299 28.8906 3.93938C29.4045 5.38299 29.6873 7.22416 29.6873 9.36514V11.6043ZM30.1542 0.462564C30.3724 0.462273 30.59 0.484403 30.8036 0.528603C30.5713 0.67151 30.3538 0.836979 30.1542 1.02258C29.9547 0.836965 29.7372 0.671494 29.5049 0.528603C29.7185 0.484405 29.9361 0.462275 30.1542 0.462564ZM26.9764 0.529925C27.1899 0.484633 27.4076 0.462051 27.6258 0.462564C27.8435 0.462272 28.0607 0.484403 28.2739 0.528603C28.0419 0.671523 27.8249 0.836995 27.6258 1.02258C27.4263 0.837388 27.2088 0.67236 26.9764 0.529925ZM27.9472 1.35145C28.225 1.09337 28.5435 0.88233 28.89 0.72672C29.2363 0.882035 29.5544 1.09312 29.8316 1.35145C29.4557 1.78008 29.1391 2.25669 28.89 2.76865C28.6406 2.25658 28.3235 1.77993 27.9472 1.35132V1.35145Z" fill="#00391F"/>
<path d="M48.1513 3.94C48.6652 5.38229 48.9481 7.22346 48.9481 9.36444V11.6041H49.4129V9.36444C49.4129 6.93685 49.0517 4.87644 48.3996 3.31263C48.6515 2.71879 48.9942 2.16723 49.4155 1.67751C50.7156 3.14093 51.4779 5.84853 51.4779 9.36444V11.6041H51.9426V9.36431C51.9426 5.7216 51.1286 2.90438 49.7382 1.34983C50.0159 1.09246 50.3339 0.881887 50.6798 0.726418C52.7368 1.63379 54.0063 4.82611 54.0063 9.36431V11.604H54.4711V9.36431C54.4711 4.94234 53.2719 1.73681 51.2946 0.528301C51.5082 0.484101 51.7258 0.461971 51.944 0.462262C54.7327 0.462262 56.5347 3.95704 56.5347 9.36431V11.604H56.9995V9.36431C56.9995 3.67572 55.0155 -1.03739e-05 51.944 -1.03739e-05C51.5122 -0.0013483 51.0838 0.0756357 50.6798 0.227164C49.8644 -0.0757117 48.9666 -0.0757117 48.1513 0.227164C47.336 -0.0757117 46.4382 -0.0757117 45.6229 0.227164C45.2184 0.0755233 44.7896 -0.0014617 44.3573 -1.03739e-05C41.2871 -1.03739e-05 39.3018 3.67572 39.3018 9.36563L39.3337 14.6369C39.3337 16.7778 39.0508 18.619 38.5369 20.0626C38.0216 18.619 37.7388 16.7778 37.7388 14.6369V12.3964H37.274V14.6369C37.274 17.0631 37.6352 19.1235 38.2872 20.6873C38.0363 21.2814 37.694 21.833 37.2727 22.3225C35.9726 20.859 35.2103 18.1528 35.2103 14.6369V12.3964H34.7455V14.6369C34.7455 18.2782 35.5583 21.0955 36.95 22.65C36.6721 22.9077 36.3536 23.1183 36.0071 23.2734C33.9501 22.3661 32.6806 19.1751 32.6806 14.6369V12.3964H32.2158V14.6369C32.2158 19.0575 33.4149 22.263 35.3923 23.4715C35.1787 23.5157 34.9611 23.5379 34.7429 23.5376C31.9542 23.5376 30.1521 20.0441 30.1521 14.6369V12.3964H29.6873V14.6369C29.6873 20.3241 31.6713 23.9999 34.7429 23.9999C35.1747 24.0012 35.6031 23.9242 36.0071 23.7727C36.8229 24.0756 37.7211 24.0756 38.5369 23.7727C39.3522 24.0756 40.25 24.0756 41.0653 23.7727C41.4693 23.9242 41.8977 24.0012 42.3295 23.9999C45.4011 23.9999 47.3851 20.3241 47.3851 14.6355L47.3545 9.36431C47.3545 7.22333 47.6377 5.38216 48.1513 3.94ZM49.4155 0.462391C49.6337 0.4621 49.8513 0.48423 50.0649 0.52843C49.8326 0.671321 49.615 0.836792 49.4155 1.0224C49.216 0.836803 48.9985 0.671334 48.7662 0.52843C48.9798 0.484233 49.1974 0.462103 49.4155 0.462391ZM49.0928 1.34995C48.7174 1.77988 48.4008 2.2573 48.1513 2.76979C47.9018 2.25738 47.5847 1.78034 47.2085 1.35128C47.4863 1.0932 47.8048 0.882157 48.1513 0.726547C48.4972 0.881972 48.8152 1.09263 49.0928 1.34995ZM46.8871 0.462391C47.1053 0.4621 47.3229 0.48423 47.5365 0.52843C47.3041 0.671335 47.0866 0.836804 46.8871 1.0224C46.6879 0.836812 46.4703 0.671752 46.2377 0.529752C46.4512 0.484416 46.6688 0.461922 46.8871 0.462391ZM39.7984 14.6357L39.7666 9.36444C39.7666 3.95718 41.5686 0.462391 44.3573 0.462391C44.5756 0.461878 44.7933 0.48446 45.0067 0.529752C43.0294 1.73826 41.8315 4.94379 41.8315 9.36576L41.8621 14.637C41.8621 18.1529 41.0998 20.8592 39.8011 22.3226C39.3789 21.8335 39.0361 21.2818 38.7852 20.6875C39.4372 19.1222 39.7984 17.0618 39.7984 14.6355V14.6357ZM37.2713 23.5377C37.0532 23.538 36.8356 23.5159 36.622 23.4717C36.8547 23.3288 37.0727 23.1633 37.2727 22.9777C37.4714 23.1633 37.6885 23.3283 37.9207 23.4704C37.7072 23.5156 37.4895 23.5381 37.2712 23.5376L37.2713 23.5377ZM37.594 22.6502C37.9694 22.2204 38.2864 21.7435 38.5369 21.2316C38.7859 21.744 39.1026 22.221 39.4784 22.6502C39.2004 22.9071 38.8825 23.1176 38.5369 23.2736C38.1904 23.1184 37.8719 22.9078 37.594 22.65V22.6502ZM39.8011 23.5377C39.5829 23.5382 39.3652 23.5156 39.1517 23.4704C39.3843 23.3284 39.6019 23.1633 39.8011 22.9777C40.0006 23.1633 40.2181 23.3288 40.4505 23.4717C40.2369 23.5159 40.0193 23.538 39.8011 23.5377ZM40.1225 22.6502C41.5142 21.0956 42.3269 18.2784 42.3269 14.6357L42.2963 9.36444C42.2963 4.82625 43.5659 1.63392 45.6229 0.726547C45.9685 0.882986 46.2864 1.09395 46.5644 1.35128C45.1727 2.90715 44.36 5.72305 44.36 9.36576L44.3905 14.637C44.3905 19.1752 43.1223 22.3662 41.0653 23.2736C40.7189 23.1184 40.4003 22.9078 40.1225 22.65V22.6502ZM42.3295 23.5377C42.1114 23.538 41.8938 23.5159 41.6802 23.4717C43.6562 22.2632 44.8553 19.0576 44.8553 14.6357L44.8248 9.36444C44.8248 5.84985 45.5857 3.14225 46.8871 1.67883C47.3084 2.16855 47.6511 2.72011 47.903 3.31396C47.251 4.87908 46.8898 6.93949 46.8898 9.36576L46.9203 14.637C46.9203 20.0443 45.1182 23.5376 42.3295 23.5376V23.5377Z" fill="#00391F"/>
</g>
<g clip-path="url(#clip1_1148_2824)">
<path d="M105.175 36L99.7376 49.9304H102.639L103.856 46.6868H109.81L111.026 49.9304H113.998L108.565 36H105.175ZM106.841 38.7462L108.855 44.1274H104.816L106.841 38.7462ZM85.8169 36V38.597H90.1449V49.9282H92.927V38.597H97.2546V36H85.8169ZM76.8907 36V45.3034L69.8007 36H67.1985V49.9304H69.9805L69.9906 40.627L77.0709 49.9304H79.6837V36H76.8907ZM50.5628 36V49.9304H60.9934V47.3829H53.3431V44.1791H60.5628V41.6315H53.3431V38.5471H60.9118V36H50.5628ZM42.7924 36L39.2821 41.9102L35.7722 36H32.5013L37.8764 44.4276V49.9304H40.6584V44.4376L45.9638 36H42.7924ZM21.5709 36L16.1339 49.9304H19.0361L20.2528 46.6868H26.2063L27.423 49.9304H30.3945L24.9602 36H21.5709ZM23.237 38.7462L25.2513 44.1274H21.2126L23.237 38.7462ZM8.71561 36L4.0986 41.6437H2.78322V36H0.00119019V49.9304H2.78322V44.1987H4.06967L9.03568 49.93H12.6456L6.35318 42.7957L12.2058 36H8.71561Z" fill="#00391F"/>
</g>
<defs>
<clipPath id="clip0_1148_2824">
<rect width="73.92" height="24" fill="white" transform="translate(20.04)"/>
</clipPath>
<clipPath id="clip1_1148_2824">
<rect width="114" height="14" fill="white" transform="translate(0 36)"/>
</clipPath>
</defs>
</svg>
