<svg width="392" height="34" viewBox="0 0 392 34" fill="none" xmlns="http://www.w3.org/2000/svg">
<g clip-path="url(#clip0_1148_2847)">
<path d="M100 16.4556H13.0502V17.5451H100V16.4556Z" fill="#706CFF"/>
<path d="M88.5055 17.5451V20.6257C88.5055 28.0607 86.0677 32.8642 82.2951 32.8642C81.9998 32.8649 81.7054 32.8338 81.4166 32.7716C84.0898 31.1117 85.712 26.7041 85.712 20.6257V17.5451H85.0832V20.6257C85.0832 26.8657 83.3658 31.2515 80.5848 32.501C80.1161 32.2877 79.6853 31.9981 79.3093 31.6438C81.192 29.5063 82.2915 25.6326 82.2915 20.6257V17.5451H81.6627V20.6257C81.6627 25.4601 80.6315 29.1812 78.8746 31.1934C78.3034 30.5209 77.8397 29.7623 77.5003 28.9451C78.3823 26.7949 78.871 23.9618 78.871 20.6257V17.5451H78.2422V20.6257C78.2422 23.5695 77.8596 26.1011 77.1643 28.0861C76.4673 26.1011 76.0846 23.5695 76.0846 20.6257V17.5451H75.4559V20.6257C75.4559 23.9618 75.9445 26.7949 76.8266 28.9451C76.4865 29.7625 76.0229 30.5216 75.4523 31.1952C73.6935 29.183 72.6623 25.4619 72.6623 20.6257V17.5451H72.0336V20.6257C72.0336 25.6326 73.1348 29.5063 75.0175 31.6438C74.6416 31.9981 74.2107 32.2877 73.742 32.501C70.9593 31.2533 69.2418 26.8657 69.2418 20.6257V17.5451H68.6131V20.6257C68.6131 26.7041 70.2353 31.1117 72.9085 32.7734C72.6201 32.8341 72.3263 32.8646 72.0318 32.8642C68.2592 32.8642 65.8213 28.0607 65.8213 20.6257V17.5451H65.1926V20.6257C65.1926 28.4457 67.8765 33.4998 72.0318 33.4998C72.6159 33.5016 73.1955 33.3958 73.742 33.1874C74.8456 33.6039 76.0608 33.6039 77.1643 33.1874C77.71 33.3968 78.2892 33.5027 78.8728 33.4998C79.4575 33.5018 80.0377 33.3959 80.5848 33.1874C81.1314 33.3958 81.711 33.5016 82.2951 33.4998C86.4486 33.4998 89.1343 28.4457 89.1343 20.6257V17.5451H88.5055ZM75.4523 32.8642C75.1571 32.8646 74.8628 32.8341 74.5738 32.7734C74.8877 32.5769 75.1819 32.3501 75.4523 32.096C75.7227 32.35 76.0169 32.5769 76.3308 32.7734C76.0417 32.8341 75.7473 32.8646 75.4521 32.8642H75.4523ZM77.1625 32.501C76.6939 32.2877 76.263 31.9981 75.887 31.6438C76.3961 31.0534 76.8256 30.3976 77.1643 29.6933C77.5012 30.3978 77.9296 31.0537 78.438 31.6438C78.0621 31.9981 77.6312 32.2877 77.1625 32.501ZM78.8728 32.8642C78.5782 32.8646 78.2844 32.8341 77.9961 32.7734C78.3104 32.5769 78.6047 32.3494 78.8746 32.0942C79.1434 32.3493 79.4372 32.5763 79.7513 32.7716C79.4625 32.8338 79.168 32.8649 78.8728 32.8642Z" fill="#00391F"/>
<path d="M64.1129 5.91569C64.8081 7.90066 65.1908 10.4323 65.1908 13.3761V16.4556H65.8196V13.3761C65.8196 10.0382 65.3309 7.2051 64.4488 5.05488C64.7882 4.23818 65.252 3.48019 65.8231 2.8084C67.5819 4.8206 68.6113 8.54355 68.6113 13.3761V16.4556H69.2401V13.3761C69.2401 8.3692 68.1406 4.49734 66.2579 2.35801C66.6338 2.00315 67.0647 1.71297 67.5334 1.49901C70.3162 2.74665 72.0336 7.13609 72.0336 13.3761V16.4556H72.6624V13.3759C72.6624 7.29572 71.0401 2.88812 68.3652 1.22642C68.6541 1.16565 68.9485 1.13522 69.2436 1.13561C73.0163 1.13561 75.4541 5.94094 75.4541 13.3759V16.4554H76.0829V13.3759C76.0829 5.55411 73.3989 0.49999 69.2436 0.49999C68.6594 0.497262 68.0797 0.603144 67.5334 0.812355C66.4298 0.39589 65.2147 0.39589 64.1111 0.812355C63.0081 0.395885 61.7935 0.395885 60.6906 0.812355C60.144 0.604008 59.5645 0.498155 58.9803 0.49999C54.8251 0.49999 52.1411 5.55411 52.1411 13.3759L52.1591 20.6257C52.1591 23.5695 51.7764 26.1011 51.0812 28.0861C50.3842 26.1011 50.0015 23.5695 50.0015 20.6257V17.5451H49.3727V20.6257C49.3727 23.9618 49.8614 26.7949 50.7435 28.9451C50.4039 29.7619 49.9409 30.5204 49.3709 31.1934C47.6122 29.1812 46.581 25.4601 46.581 20.6257V17.5451H45.9522V20.6257C45.9522 25.6326 47.0517 29.5063 48.9344 31.6438C48.5585 31.9981 48.1276 32.2877 47.6589 32.501C44.8761 31.2533 43.1587 26.8657 43.1587 20.6257V17.5451H42.5299V20.6257C42.5299 26.7041 44.1522 31.1117 46.8271 32.7734C46.5382 32.8341 46.2438 32.8646 45.9487 32.8642C42.176 32.8642 39.7382 28.0607 39.7382 20.6257V17.5451H39.1094V20.6257C39.1094 28.4457 41.7934 33.4998 45.9487 33.4998C46.5328 33.5016 47.1123 33.3958 47.6589 33.1874C48.7619 33.6039 49.9765 33.6039 51.0794 33.1874C52.183 33.6039 53.3981 33.6039 54.5017 33.1874C55.0483 33.3958 55.6278 33.5017 56.212 33.4998C60.3672 33.4998 63.0512 28.4457 63.0512 20.6239L63.0332 13.3759C63.0332 10.4321 63.4159 7.90047 64.1129 5.91569ZM65.8231 1.13579C66.1177 1.13539 66.4115 1.16582 66.6998 1.2266C66.3861 1.42312 66.0924 1.65064 65.8231 1.90581C65.5532 1.65116 65.259 1.42425 64.9447 1.22841C65.2334 1.16608 65.5279 1.13515 65.8231 1.13579ZM64.1129 1.49901C64.5805 1.71412 65.0106 2.00419 65.3866 2.35801C64.8776 2.94692 64.4492 3.60234 64.1129 4.30666C63.7754 3.60263 63.3464 2.9473 62.8374 2.35801C63.2133 2.00309 63.6441 1.71303 64.1129 1.49901ZM62.4008 1.13579C62.6961 1.13509 62.9906 1.16614 63.2793 1.22841C62.9652 1.42369 62.6715 1.65065 62.4026 1.90581C62.1321 1.65058 61.8373 1.42306 61.5224 1.2266C61.8113 1.16582 62.1057 1.13539 62.4008 1.13579ZM52.7879 20.624L52.7699 13.3761C52.7699 5.94112 55.2077 1.13579 58.9803 1.13579C59.2755 1.1354 59.5699 1.16583 59.8588 1.2266C57.1839 2.8883 55.5616 7.29591 55.5616 13.3761L55.5796 20.6259C55.5796 25.4602 54.5484 29.1814 52.7915 31.1936C52.2203 30.5211 51.7565 29.7625 51.4171 28.9453C52.2992 26.7931 52.7879 23.96 52.7879 20.6239V20.624ZM49.3692 32.8644C49.074 32.8647 48.7796 32.8343 48.4907 32.7736C48.8056 32.5771 49.1004 32.3496 49.3709 32.0943C49.6398 32.3495 49.9335 32.5765 50.2476 32.7717C49.9589 32.8339 49.6644 32.8649 49.3692 32.8642V32.8644ZM49.8057 31.644C50.3141 31.0536 50.743 30.3977 51.0812 29.6935C51.4188 30.3976 51.847 31.0535 52.3549 31.644C51.9788 31.9972 51.5487 32.2867 51.0812 32.5011C50.6125 32.2878 50.1816 31.9982 49.8057 31.6438V31.644ZM52.7915 32.8644C52.4962 32.8651 52.2017 32.834 51.913 32.7717C52.2273 32.5759 52.5215 32.349 52.7915 32.0943C53.0614 32.3495 53.3556 32.5771 53.6699 32.7736C53.381 32.8343 53.0866 32.8647 52.7915 32.8644ZM53.2262 31.644C55.1089 29.5064 56.2084 25.6328 56.2084 20.624L56.1904 13.3761C56.1904 7.13609 57.9078 2.74665 60.6906 1.49901C61.1593 1.71297 61.5902 2.00315 61.9661 2.35801C60.0834 4.49734 58.9839 8.3692 58.9839 13.3761L59.0019 20.6259C59.0019 26.8659 57.2845 31.2535 54.5017 32.5011C54.033 32.2878 53.6021 31.9982 53.2262 31.6438V31.644ZM56.212 32.8644C55.9168 32.8647 55.6224 32.8343 55.3335 32.7736C58.0084 31.1119 59.6307 26.7043 59.6307 20.624L59.6127 13.3761C59.6127 8.54355 60.6421 4.8206 62.4026 2.8084C62.9726 3.48073 63.4357 4.23862 63.7752 5.05488C62.8931 7.2051 62.4044 10.0382 62.4044 13.3761L62.4224 20.6259C62.4224 28.0609 59.9846 32.8642 56.212 32.8642V32.8644Z" fill="#00391F"/>
<path d="M13.0507 16.4558H13.6795V13.3762C13.6795 10.0383 13.1908 7.20523 12.3087 5.05501C12.6482 4.23831 13.1119 3.48032 13.6831 2.80853C15.4418 4.82073 16.4712 8.54368 16.4712 13.3762V16.4558H17.1V13.3762C17.1 8.36934 16.0005 4.49747 14.1178 2.35814C14.4937 2.00328 14.9246 1.7131 15.3933 1.49914C18.1761 2.74678 19.8935 7.13622 19.8935 13.3762V16.4558H20.5223V13.3762C20.5223 7.29604 18.9 2.88843 16.2251 1.22673C16.514 1.16595 16.8084 1.13552 17.1036 1.13592C20.8762 1.13592 23.314 5.94125 23.314 13.3762V16.4558H23.9428V13.3762C23.9428 5.55443 21.2588 0.500298 17.1036 0.500298C16.5194 0.498463 15.9399 0.604315 15.3933 0.812663C14.2904 0.396209 13.0758 0.396209 11.9728 0.812663C10.8692 0.396198 9.65408 0.396198 8.5505 0.812663C8.00394 0.604319 7.42438 0.498467 6.84025 0.500298C2.68678 0.500298 0.0010376 5.55443 0.0010376 13.3762V16.9692H0.629808V13.377C0.629808 5.94198 3.06764 1.13665 6.84025 1.13665C7.1355 1.13596 7.42998 1.167 7.71873 1.22927C5.04556 2.88916 3.42334 7.29677 3.42334 13.377V17.0127H4.05211V13.377C4.05211 7.13695 5.76955 2.74751 8.5523 1.49987C9.01987 1.71498 9.44998 2.00505 9.826 2.35887C7.94329 4.4982 6.84384 8.37006 6.84384 13.377V17.0127H7.47261V13.377C7.47261 8.54441 8.502 4.82146 10.2626 2.80925C10.8325 3.48159 11.2956 4.23948 11.6351 5.05573C10.753 7.20596 10.2643 10.039 10.2643 13.377V17.0127H10.8931V13.377C10.8931 10.4331 11.2758 7.90151 11.9728 5.91655C12.668 7.90151 13.0507 10.4331 13.0507 13.377V16.4558ZM13.6823 1.13592C13.9775 1.13552 14.2719 1.16595 14.5608 1.22673C14.2465 1.42322 13.9522 1.65074 13.6823 1.90594C13.4125 1.65072 13.1182 1.4232 12.8039 1.22673C13.0928 1.16595 13.3872 1.13552 13.6823 1.13592ZM9.38335 1.22854C9.6721 1.16627 9.96659 1.13522 10.2618 1.13592C10.5564 1.13552 10.8502 1.16595 11.1385 1.22673C10.8248 1.42324 10.5311 1.65076 10.2618 1.90594C9.99191 1.65131 9.69764 1.42439 9.38335 1.22854ZM10.6966 2.35814C11.0725 2.00328 11.5033 1.7131 11.9721 1.49914C12.4405 1.7127 12.8709 2.00293 13.2458 2.35814C12.7374 2.94751 12.309 3.60285 11.9721 4.30679C11.6346 3.6027 11.2056 2.9473 10.6966 2.35796V2.35814Z" fill="#00391F"/>
<path d="M38.0294 5.91752C38.7246 7.90067 39.1073 10.4323 39.1073 13.3761V16.4556H39.7361V13.3761C39.7361 10.0382 39.2474 7.20511 38.3653 5.05488C38.7061 4.23834 39.1697 3.47995 39.7396 2.80659C41.4984 4.81879 42.5296 8.54174 42.5296 13.3761V16.4556H43.1584V13.3759C43.1584 8.36721 42.0571 4.49354 40.1762 2.35602C40.5518 2.00214 40.982 1.71261 41.4499 1.49884C44.2327 2.74648 45.9501 7.13592 45.9501 13.3759V16.4554H46.5789V13.3759C46.5789 7.29573 44.9566 2.88813 42.2817 1.22643C42.5706 1.16565 42.865 1.13522 43.1602 1.13562C46.9328 1.13562 49.3706 5.94094 49.3706 13.3759V16.4554H49.9994V13.3759C49.9994 5.55412 47.3154 0.499997 43.1602 0.499997C42.576 0.498158 41.9965 0.60401 41.4499 0.812362C40.3469 0.395908 39.1324 0.395908 38.0294 0.812362C36.9264 0.395908 35.7118 0.395908 34.6089 0.812362C34.0617 0.603856 33.4816 0.498002 32.8968 0.499997C28.7434 0.499997 26.0576 5.55412 26.0576 13.3778L26.1007 20.6257C26.1007 23.5695 25.7181 26.1011 25.0229 28.0861C24.3258 26.1011 23.9432 23.5695 23.9432 20.6257V17.5451H23.3144V20.6257C23.3144 23.9618 23.803 26.7949 24.6851 28.9451C24.3456 29.7619 23.8826 30.5204 23.3126 31.1934C21.5538 29.1812 20.5227 25.4601 20.5227 20.6257V17.5451H19.8939V20.6257C19.8939 25.6326 20.9933 29.5063 22.8761 31.6438C22.5001 31.9981 22.0692 32.2877 21.6006 32.501C18.8178 31.2533 17.1004 26.8657 17.1004 20.6257V17.5451H16.4716V20.6257C16.4716 26.7041 18.0938 31.1117 20.7688 32.7734C20.4798 32.8341 20.1854 32.8646 19.8903 32.8642C16.1177 32.8642 13.6799 28.0607 13.6799 20.6257V17.5451H13.0511V20.6257C13.0511 28.4457 15.735 33.4998 19.8903 33.4998C20.4744 33.5017 21.054 33.3958 21.6006 33.1875C22.7041 33.6039 23.9193 33.6039 25.0229 33.1875C26.1258 33.6039 27.3404 33.6039 28.4434 33.1875C28.9899 33.3958 29.5695 33.5017 30.1536 33.4998C34.3089 33.4998 36.9928 28.4457 36.9928 20.6239L36.9515 13.3759C36.9515 10.4321 37.3345 7.90048 38.0294 5.91752ZM39.7396 1.1358C40.0348 1.1354 40.3292 1.16583 40.6181 1.2266C40.3038 1.42308 40.0095 1.6506 39.7396 1.90582C39.4697 1.65062 39.1755 1.4231 38.8612 1.2266C39.1501 1.16583 39.4445 1.1354 39.7396 1.1358ZM39.3031 2.3562C38.7952 2.94734 38.367 3.60379 38.0294 4.30848C37.6919 3.60391 37.2629 2.94798 36.7539 2.35802C37.1298 2.00316 37.5607 1.71298 38.0294 1.49901C38.4973 1.71272 38.9275 2.00238 39.3031 2.3562ZM36.3191 1.1358C36.6143 1.1354 36.9087 1.16583 37.1976 1.2266C36.8833 1.4231 36.589 1.65062 36.3191 1.90582C36.0497 1.65063 35.7554 1.42367 35.4407 1.22842C35.7294 1.16608 36.0239 1.13515 36.3191 1.1358ZM26.7295 20.6241L26.6864 13.3761C26.6864 5.94113 29.1242 1.1358 32.8968 1.1358C33.1921 1.13509 33.4866 1.16614 33.7753 1.22842C31.1004 2.89013 29.4799 7.29773 29.4799 13.3779L29.5212 20.6259C29.5212 25.4603 28.4901 29.1814 26.7331 31.1936C26.1619 30.5211 25.6982 29.7625 25.3588 28.9453C26.2409 26.7931 26.7295 23.96 26.7295 20.6239V20.6241ZM23.3108 32.8644C23.0157 32.8648 22.7213 32.8343 22.4323 32.7736C22.7472 32.5771 23.0421 32.3496 23.3126 32.0944C23.5814 32.3495 23.8752 32.5765 24.1893 32.7718C23.9005 32.834 23.6059 32.8649 23.3106 32.8642L23.3108 32.8644ZM23.7474 31.644C24.2552 31.0531 24.684 30.3973 25.0229 29.6935C25.3598 30.398 25.7881 31.0539 26.2966 31.644C25.9205 31.9973 25.4904 32.2867 25.0229 32.5012C24.5542 32.2878 24.1233 31.9982 23.7474 31.6438V31.644ZM26.7331 32.8644C26.4379 32.8651 26.1434 32.834 25.8546 32.7718C26.1693 32.5765 26.4636 32.3495 26.7331 32.0944C27.003 32.3496 27.2973 32.5771 27.6116 32.7736C27.3226 32.8343 27.0282 32.8648 26.7331 32.8644ZM27.1679 31.644C29.0506 29.5065 30.15 25.6328 30.15 20.6241L30.1087 13.3761C30.1087 7.1361 31.8261 2.74665 34.6089 1.49901C35.0765 1.71412 35.5066 2.00419 35.8826 2.35802C33.9999 4.49735 32.9004 8.36921 32.9004 13.3779L32.9418 20.6259C32.9418 26.8659 31.2261 31.2535 28.4434 32.5012C27.9747 32.2878 27.5438 31.9982 27.1679 31.6438V31.644ZM30.1536 32.8644C29.8585 32.8648 29.5641 32.8343 29.2751 32.7736C31.9483 31.1119 33.5705 26.7043 33.5705 20.6241L33.5292 13.3761C33.5292 8.54356 34.5586 4.82061 36.3191 2.8084C36.8891 3.48177 37.3527 4.24016 37.6935 5.0567C36.8114 7.20874 36.3227 10.0418 36.3227 13.3779L36.3641 20.6259C36.3641 28.0609 33.9262 32.8642 30.1536 32.8642V32.8644Z" fill="#00391F"/>
</g>
<g clip-path="url(#clip1_1148_2847)">
<path d="M370.478 0L357.22 33.8311H364.296L367.263 25.9537H381.781L384.748 33.8311H391.994L378.747 0H370.478ZM374.541 6.66931L379.453 19.7381H369.605L374.541 6.66931ZM323.273 0V6.307H333.827V33.8257H340.611V6.307H351.165V0H323.273ZM301.505 0V22.5941L284.216 0H277.87V33.8311H284.654L284.679 11.237L301.945 33.8311H308.316V0H301.505ZM237.302 0V33.8311H262.738V27.6441H244.082V19.8634H261.688V13.6765H244.082V6.18587H262.539V0H237.302ZM218.353 0L209.793 14.3533L201.234 0H193.258L206.365 20.4669V33.8311H213.149V20.4914L226.087 0H218.353ZM166.603 0L153.344 33.8311H160.421L163.389 25.9537H177.907L180.874 33.8311H188.12L174.868 0H166.603ZM170.666 6.66931L175.578 19.7381H165.729L170.666 6.66931ZM135.254 0L123.995 13.7062H120.787V0H114.003V33.8311H120.787V19.9112H123.924L136.034 33.83H144.837L129.493 16.5038L143.765 0H135.254Z" fill="#00391F"/>
</g>
<defs>
<clipPath id="clip0_1148_2847">
<rect width="100" height="33" fill="white" transform="translate(0 0.5)"/>
</clipPath>
<clipPath id="clip1_1148_2847">
<rect width="278" height="34" fill="white" transform="translate(114)"/>
</clipPath>
</defs>
</svg>
